<svg width="1234" height="794" viewBox="0 0 1234 794" fill="none" xmlns="http://www.w3.org/2000/svg">
<path d="M501.662 598.276L397.802 618.269L335.028 690.72" stroke="black" stroke-width="5"/>
<path d="M738.647 605.48L842.504 625.473L906.278 697.926" stroke="black" stroke-width="5"/>
<path d="M497.054 427.183L405.041 479.35L368.728 568.081" stroke="black" stroke-width="5"/>
<path d="M748.306 434.843L840.316 487.011L876.629 575.741" stroke="black" stroke-width="5"/>
<path d="M755.128 149.737L822.998 118.913L909.651 111.094" stroke="black" stroke-width="5"/>
<path d="M504.206 146.053L436.336 115.23L349.685 107.411" stroke="black" stroke-width="5"/>
<path d="M757.022 174.114C757.022 -4.83049 501.1 -4.83031 501.1 174.114C501.1 216.621 552.607 246.568 578.36 256.228C588.018 262.669 580.328 285.21 557.15 323.851C528.177 372.154 531.984 375.251 496.271 425.286C465.403 468.533 478.566 536.381 486.614 570.193C509.148 652.306 576.465 787.328 607.333 787.328C638.201 787.328 747.797 595.909 757.022 570.193C774.445 521.665 752.2 449.437 747.37 425.286C742.541 401.135 687.525 352.833 658.554 323.851C635.377 300.666 648.897 269.109 668.214 256.228C680.801 247.831 682.695 265.663 757.022 174.114Z" fill="#F7D458" stroke="black" stroke-width="5"/>
<path d="M747.088 136.861C760.288 123.657 751.116 93.0739 726.601 68.5517C702.086 44.0295 671.512 34.8545 658.311 48.0588C645.111 61.263 654.283 91.8463 678.798 116.369C703.313 140.891 733.887 150.066 747.088 136.861Z" fill="black"/>
<path d="M514.261 135.925C527.462 149.129 558.036 139.954 582.551 115.432C607.065 90.9096 616.238 60.3262 603.037 47.122C589.837 33.9178 559.263 43.0928 534.748 67.615C510.233 92.1372 501.061 122.72 514.261 135.925Z" fill="black"/>
<path d="M13.2198 164.943C-1.37188 175.559 -20.9032 243.766 311.576 454.46C320.216 459.934 331.134 461.23 340.761 457.777L533.794 388.556C537.409 387.259 540.575 384.949 542.915 381.901L603.484 302.967C607.427 297.828 607.111 290.6 602.736 285.824L565.924 245.655C516.167 199.919 358.594 109.73 184.311 116.187C10.027 122.645 2.46134 151.492 13.2198 164.943Z" fill="white" stroke="black" stroke-width="10"/>
<path d="M579.548 333.777L381.865 442.737" stroke="black" stroke-width="5"/>
<path d="M595.684 313.6L389.62 305.822C384.467 305.627 379.308 306.031 374.248 307.026L155.94 349.92" stroke="black" stroke-width="5"/>
<path d="M64.304 128.133L132.829 171.934C137.46 174.894 142.439 177.27 147.652 179.009L153.271 180.882C160.379 183.252 167.036 186.802 172.963 191.384L230.999 236.243C244.94 247.018 262.576 251.84 280.057 249.654L317.313 244.995H363.498C367.663 244.995 371.82 245.386 375.913 246.161L604.906 289.555" stroke="black" stroke-width="5"/>
<path d="M195.193 113.098L272.937 180.426L317.315 244.995" stroke="black" stroke-width="5"/>
<path d="M259.45 168.32H434.317" stroke="black" stroke-width="5"/>
<path d="M393.968 249.031L518 210" stroke="black" stroke-width="5"/>
<path d="M318.333 314.954L377.828 244.995" stroke="black" stroke-width="5"/>
<path d="M37.3623 233.987L142.255 177.489" stroke="black" stroke-width="5"/>
<path d="M126.141 322.758L263.309 250.118" stroke="black" stroke-width="5"/>
<path d="M289.076 438.701L305.213 386.239L357.659 374.133L456.485 306.078" stroke="black" stroke-width="5"/>
<path d="M365.661 366.784L365.661 422.56L349.523 455.566" stroke="black" stroke-width="5"/>
<path d="M208.387 386.24H305.212" stroke="black" stroke-width="5"/>
<path d="M1216.97 173.016C1231.57 183.631 1251.1 251.837 918.616 462.532C909.978 468.006 899.059 469.302 889.434 465.85L696.396 396.628C692.781 395.331 689.619 393.021 687.278 389.973L626.709 311.039C622.765 305.9 623.081 298.671 627.457 293.897L664.268 253.727C714.026 207.991 871.598 117.803 1045.89 124.26C1220.17 130.716 1227.73 159.564 1216.97 173.016Z" fill="white" stroke="black" stroke-width="10"/>
<path d="M650.645 341.85L848.325 450.809" stroke="black" stroke-width="5"/>
<path d="M634.508 321.673L840.574 313.894C845.723 313.7 850.886 314.103 855.942 315.098L1074.25 357.992" stroke="black" stroke-width="5"/>
<path d="M1165.89 136.205L1097.37 180.006C1092.73 182.965 1087.75 185.342 1082.54 187.08L1076.92 188.954C1069.81 191.324 1063.15 194.874 1057.23 199.456L999.193 244.315C985.252 255.09 967.615 259.911 950.133 257.726L912.879 253.067H866.694C862.532 253.067 858.37 253.457 854.281 254.233L625.286 297.627" stroke="black" stroke-width="5"/>
<path d="M1035 121.169L957.257 188.499L912.879 253.068" stroke="black" stroke-width="5"/>
<path d="M970.744 176.392H795.876" stroke="black" stroke-width="5"/>
<path d="M836.226 257.103L708.403 216.955" stroke="black" stroke-width="5"/>
<path d="M911.859 323.026L852.36 253.067" stroke="black" stroke-width="5"/>
<path d="M1192.83 242.059L1087.94 185.561" stroke="black" stroke-width="5"/>
<path d="M1104.05 330.83L966.882 258.19" stroke="black" stroke-width="5"/>
<path d="M941.114 446.773L924.979 394.311L872.531 382.204L773.711 314.15" stroke="black" stroke-width="5"/>
<path d="M864.534 374.856V430.632L880.67 463.638" stroke="black" stroke-width="5"/>
<path d="M1021.8 394.312H924.979" stroke="black" stroke-width="5"/>
<path d="M481 459.5L561.98 470.142H668.214L755 458.5L759.957 487.853L762 501L763 514.5L668.214 526.495H561.98L477.5 515L477 493.5L478 476.5L481 459.5Z" fill="black"/>
<path d="M529 681H695.5L668.35 724.366L633.763 767.726L618.999 782.124C615.793 785.25 611.492 787 607.014 787C602.518 787 598.202 785.236 594.993 782.088L580.352 767.726L550.705 724.366L529 681Z" fill="black"/>
<path d="M488 574.5L754.5 576L740 604L723.935 632.998L507.435 632.498L496.435 603.998L488 574.5Z" fill="black"/>
<path d="M505.561 16.0181C502.434 12.8904 503.29 7.61766 507.245 5.6395L515.712 1.4047C517.559 0.480928 519.595 0 521.66 0H531.656C538.924 0 546.122 1.42434 552.843 4.19253L624.753 37.5V42.5L544.921 14.0513C537.209 11.209 528.758 11.077 520.961 13.6769L519.44 14.1841C518.828 14.3882 518.231 14.6356 517.654 14.9242L513.039 17.2321C510.545 18.4795 507.533 17.9905 505.561 16.0181Z" fill="black"/>
<path d="M753.607 16.0181C756.729 12.8904 755.875 7.61766 751.92 5.6395L743.455 1.4047C741.607 0.480928 739.566 0 737.505 0H727.507C720.243 0 713.045 1.42434 706.322 4.19253L634.412 37.5V42.5L714.246 14.0513C721.957 11.209 730.408 11.077 738.206 13.6769L739.726 14.1841C740.34 14.3882 740.934 14.6356 741.514 14.9242L746.123 17.2321C748.618 18.4795 751.633 17.9905 753.607 16.0181Z" fill="black"/>
</svg>
